<?xml version="1.0" encoding="UTF-8"?>
<!DOCTYPE score-partwise PUBLIC "-//Recordare//DTD MusicXML 2.0 Partwise//EN"
  "http://www.musicxml.org/dtds/partwise.dtd">
<score-partwise version="2.0"><work><work-title>What a Wonderful World - Weiss &amp; Thiele</work-title></work><identification><creator type="composer">Easy Piano</creator><creator type="lyricist"/><rights/><encoding><software>Noteflight version 0.4</software><encoding-date>2019-01-02</encoding-date><supports attribute="new-system" element="print" type="no" value="no"/><supports attribute="new-page" element="print" type="no" value="no"/></encoding></identification><defaults><scaling><millimeters>2.0813888902</millimeters><tenths>10</tenths></scaling><page-layout><page-height>1342.3728813559321</page-height><page-width>1037.2881355932202</page-width><page-margins type="both"><left-margin>60.593220338983045</left-margin><right-margin>57.62711864406779</right-margin><top-margin>98.30508474576271</top-margin><bottom-margin>81.35593220338983</bottom-margin></page-margins></page-layout><system-layout><system-margins><left-margin>60.593220338983045</left-margin><right-margin>27.11864406779661</right-margin></system-margins><system-distance>92.5</system-distance><top-system-distance>146.73728813559322</top-system-distance></system-layout><staff-layout><staff-distance>55</staff-distance></staff-layout></defaults><credit page="1"><credit-words font-size="24" default-x="518.6440677966101" default-y="1282.3728813559321" justify="center" valign="top">What a Wonderful World - Weiss &amp; Thiele</credit-words></credit><credit page="1"><credit-words font-size="12" default-x="933.5593220338982" default-y="1232.3728813559321" justify="right" valign="top">Easy Piano</credit-words></credit><part-list><score-part id="P1"><part-name>Piano</part-name><part-abbreviation>Pno.</part-abbreviation><score-instrument id="P1I1"><instrument-name>Piano</instrument-name><instrument-sound>keyboard.piano</instrument-sound></score-instrument><midi-instrument id="P1I1"><midi-channel>1</midi-channel><midi-program>1</midi-program></midi-instrument></score-part></part-list><part id="P1"><measure number="1"><direction placement="above"><direction-type><metronome><beat-unit>quarter</beat-unit><per-minute>100</per-minute></metronome></direction-type><sound tempo="100"/></direction><direction placement="above"><direction-type><metronome><beat-unit>quarter</beat-unit><per-minute>100</per-minute></metronome></direction-type><sound tempo="100"/></direction><note><pitch><step>C</step><octave>4</octave></pitch><duration>192</duration><voice>1</voice><type>quarter</type><staff>1</staff><lyric number="1" color="#000000"><syllabic>single</syllabic><text>I</text></lyric></note><note><pitch><step>D</step><octave>4</octave></pitch><duration>192</duration><voice>1</voice><type>quarter</type><staff>1</staff><lyric number="1" color="#000000"><syllabic>single</syllabic><text>see</text></lyric></note><backup><duration>384</duration></backup><attributes><divisions>192</divisions><key><fifths>-1</fifths><mode>major</mode></key><time print-object="yes"><beats>4</beats><beat-type>4</beat-type></time><staves>2</staves><clef number="1"><sign>G</sign><line>2</line></clef><time print-object="yes"><beats>4</beats><beat-type>4</beat-type></time><clef number="2"><sign>F</sign><line>4</line></clef></attributes><note><rest/><duration>384</duration><voice>3</voice><type>half</type><staff>2</staff></note></measure><measure number="2"><harmony><root><root-step>F</root-step></root><kind/><kind>major</kind></harmony><note><pitch><step>F</step><octave>4</octave></pitch><duration>192</duration><voice>1</voice><type>quarter</type><staff>1</staff><lyric number="1" color="#000000"><syllabic>single</syllabic><text>trees</text></lyric></note><note><pitch><step>F</step><octave>4</octave></pitch><duration>192</duration><voice>1</voice><type>quarter</type><staff>1</staff><lyric number="1" color="#000000"><syllabic>single</syllabic><text>of</text></lyric></note><harmony><root><root-step>A</root-step></root><kind text="m"/><kind text="m">minor</kind></harmony><note><pitch><step>C</step><octave>5</octave></pitch><duration>384</duration><voice>1</voice><type>half</type><staff>1</staff><lyric number="1" color="#000000"><syllabic>single</syllabic><text>green,</text></lyric></note><backup><duration>768</duration></backup><attributes><time print-object="yes"><beats>4</beats><beat-type>4</beat-type></time><time print-object="yes"><beats>4</beats><beat-type>4</beat-type></time></attributes><note><pitch><step>F</step><octave>3</octave></pitch><duration>384</duration><voice>3</voice><type>half</type><staff>2</staff></note><note><chord/><pitch><step>A</step><octave>3</octave></pitch><duration>384</duration><voice>3</voice><type>half</type><staff>2</staff></note><note><chord/><pitch><step>C</step><octave>4</octave></pitch><duration>384</duration><voice>3</voice><type>half</type><staff>2</staff></note><note><pitch><step>E</step><octave>3</octave></pitch><duration>384</duration><voice>3</voice><type>half</type><staff>2</staff></note><note><chord/><pitch><step>A</step><octave>3</octave></pitch><duration>384</duration><voice>3</voice><type>half</type><staff>2</staff></note><note><chord/><pitch><step>C</step><octave>4</octave></pitch><duration>384</duration><voice>3</voice><type>half</type><staff>2</staff></note></measure><measure number="3"><harmony><root><root-step>B</root-step><root-alter>-1</root-alter></root><kind/><kind>major</kind></harmony><note><rest/><duration>96</duration><voice>1</voice><type>eighth</type><staff>1</staff></note><note><pitch><step>D</step><octave>5</octave></pitch><duration>96</duration><voice>1</voice><type>eighth</type><staff>1</staff><lyric number="1" color="#000000"><syllabic>single</syllabic><text>red</text></lyric></note><note><pitch><step>D</step><octave>5</octave></pitch><duration>96</duration><voice>1</voice><type>eighth</type><staff>1</staff><beam number="1">begin</beam><lyric number="1" color="#000000"><syllabic>begin</syllabic><text>ros</text></lyric></note><note><pitch><step>D</step><octave>5</octave></pitch><duration>96</duration><voice>1</voice><type>eighth</type><staff>1</staff><beam number="1">end</beam><lyric number="1" color="#000000"><syllabic>end</syllabic><text>es</text></lyric></note><harmony><root><root-step>A</root-step></root><kind text="m"/><kind text="m">minor</kind></harmony><note><pitch><step>C</step><octave>5</octave></pitch><duration>384</duration><voice>1</voice><type>half</type><staff>1</staff><lyric number="1" color="#000000"><syllabic>single</syllabic><text>too.</text></lyric></note><backup><duration>768</duration></backup><attributes/><note><pitch><step>D</step><octave>3</octave></pitch><duration>384</duration><voice>3</voice><type>half</type><staff>2</staff></note><note><chord/><pitch><step>F</step><octave>3</octave></pitch><duration>384</duration><voice>3</voice><type>half</type><staff>2</staff></note><note><chord/><pitch><step>B</step><alter>-1</alter><octave>3</octave></pitch><duration>384</duration><voice>3</voice><type>half</type><staff>2</staff></note><note><pitch><step>C</step><octave>3</octave></pitch><duration>384</duration><voice>3</voice><type>half</type><staff>2</staff></note><note><chord/><pitch><step>E</step><octave>3</octave></pitch><duration>384</duration><voice>3</voice><type>half</type><staff>2</staff></note><note><chord/><pitch><step>A</step><octave>3</octave></pitch><duration>384</duration><voice>3</voice><type>half</type><staff>2</staff></note></measure><measure number="4"><harmony><root><root-step>G</root-step></root><kind text="m"/><kind text="m">minor</kind></harmony><note><rest/><duration>96</duration><voice>1</voice><type>eighth</type><staff>1</staff></note><note><pitch><step>B</step><alter>-1</alter><octave>4</octave></pitch><duration>96</duration><voice>1</voice><type>eighth</type><staff>1</staff><lyric number="1" color="#000000"><syllabic>single</syllabic><text>I</text></lyric></note><note><pitch><step>B</step><alter>-1</alter><octave>4</octave></pitch><duration>96</duration><voice>1</voice><type>eighth</type><staff>1</staff><beam number="1">begin</beam><lyric number="1" color="#000000"><syllabic>single</syllabic><text>see</text></lyric></note><note><pitch><step>B</step><alter>-1</alter><octave>4</octave></pitch><duration>96</duration><voice>1</voice><type>eighth</type><staff>1</staff><beam number="1">end</beam><lyric number="1" color="#000000"><syllabic>single</syllabic><text>them</text></lyric></note><harmony><root><root-step>F</root-step></root><kind/><kind>major</kind></harmony><note><pitch><step>A</step><octave>4</octave></pitch><duration>384</duration><voice>1</voice><type>half</type><staff>1</staff><lyric number="1" color="#000000"><syllabic>single</syllabic><text>bloom</text></lyric></note><backup><duration>768</duration></backup><attributes/><note><pitch><step>D</step><octave>3</octave></pitch><duration>384</duration><voice>3</voice><type>half</type><staff>2</staff></note><note><chord/><pitch><step>G</step><octave>3</octave></pitch><duration>384</duration><voice>3</voice><type>half</type><staff>2</staff></note><note><chord/><pitch><step>B</step><alter>-1</alter><octave>3</octave></pitch><duration>384</duration><voice>3</voice><type>half</type><staff>2</staff></note><note><pitch><step>C</step><octave>3</octave></pitch><duration>384</duration><voice>3</voice><type>half</type><staff>2</staff></note><note><chord/><pitch><step>F</step><octave>3</octave></pitch><duration>384</duration><voice>3</voice><type>half</type><staff>2</staff></note><note><chord/><pitch><step>A</step><octave>3</octave></pitch><duration>384</duration><voice>3</voice><type>half</type><staff>2</staff></note></measure><measure number="5"><harmony><root><root-step>A</root-step></root><kind text="7"/><kind text="7">dominant</kind></harmony><note><rest/><duration>96</duration><voice>1</voice><type>eighth</type><staff>1</staff></note><note><pitch><step>G</step><octave>4</octave></pitch><duration>96</duration><voice>1</voice><type>eighth</type><staff>1</staff><lyric number="1" color="#000000"><syllabic>single</syllabic><text>for</text></lyric></note><note><pitch><step>G</step><octave>4</octave></pitch><duration>96</duration><voice>1</voice><type>eighth</type><staff>1</staff><beam number="1">begin</beam><lyric number="1" color="#000000"><syllabic>single</syllabic><text>me</text></lyric></note><note><pitch><step>G</step><octave>4</octave></pitch><duration>96</duration><voice>1</voice><type>eighth</type><staff>1</staff><beam number="1">end</beam><lyric number="1" color="#000000"><syllabic>single</syllabic><text>and</text></lyric></note><harmony><root><root-step>D</root-step></root><kind text="m"/><kind text="m">minor</kind></harmony><note><pitch><step>F</step><octave>4</octave></pitch><duration>192</duration><voice>1</voice><type>quarter</type><staff>1</staff><lyric number="1" color="#000000"><syllabic>single</syllabic><text>you.</text></lyric></note><note><pitch><step>F</step><octave>4</octave></pitch><duration>96</duration><voice>1</voice><type>eighth</type><staff>1</staff><beam number="1">begin</beam><lyric number="1" color="#000000"><syllabic>single</syllabic><text>And</text></lyric></note><note><pitch><step>F</step><octave>4</octave></pitch><duration>96</duration><voice>1</voice><type>eighth</type><staff>1</staff><beam number="1">end</beam><lyric number="1" color="#000000"><syllabic>single</syllabic><text>I</text></lyric></note><backup><duration>768</duration></backup><attributes/><note><pitch><step>C</step><alter>1</alter><octave>3</octave></pitch><duration>384</duration><voice>3</voice><type>half</type><accidental>sharp</accidental><staff>2</staff></note><note><chord/><pitch><step>G</step><octave>3</octave></pitch><duration>384</duration><voice>3</voice><type>half</type><staff>2</staff></note><note><chord/><pitch><step>A</step><octave>3</octave></pitch><duration>384</duration><voice>3</voice><type>half</type><staff>2</staff></note><note><pitch><step>D</step><octave>3</octave></pitch><duration>384</duration><voice>3</voice><type>half</type><staff>2</staff></note><note><chord/><pitch><step>F</step><octave>3</octave></pitch><duration>384</duration><voice>3</voice><type>half</type><staff>2</staff></note><note><chord/><pitch><step>A</step><octave>3</octave></pitch><duration>384</duration><voice>3</voice><type>half</type><staff>2</staff></note></measure><measure number="6"><harmony><root><root-step>B</root-step><root-alter>-1</root-alter></root><kind/><kind>major</kind></harmony><note><pitch><step>F</step><octave>4</octave></pitch><duration>192</duration><voice>1</voice><type>quarter</type><duration>128</duration><time-modification><actual-notes>3</actual-notes><normal-notes>2</normal-notes><normal-type>half</normal-type></time-modification><staff>1</staff><notations><tuplet type="start" number="1"><tuplet-actual><tuplet-number>3</tuplet-number><tuplet-type>quarter</tuplet-type></tuplet-actual><tuplet-normal><tuplet-number>1</tuplet-number><tuplet-type>half</tuplet-type></tuplet-normal></tuplet></notations><lyric number="1" color="#000000"><syllabic>single</syllabic><text>think</text></lyric></note><note><pitch><step>F</step><octave>4</octave></pitch><duration>192</duration><voice>1</voice><type>quarter</type><duration>128</duration><time-modification><actual-notes>3</actual-notes><normal-notes>2</normal-notes><normal-type>half</normal-type></time-modification><staff>1</staff><lyric number="1" color="#000000"><syllabic>single</syllabic><text>to</text></lyric></note><note><pitch><step>F</step><octave>4</octave></pitch><duration>192</duration><voice>1</voice><type>quarter</type><duration>128</duration><time-modification><actual-notes>3</actual-notes><normal-notes>2</normal-notes><normal-type>half</normal-type></time-modification><staff>1</staff><notations><tuplet type="stop" number="1"/></notations><lyric number="1" color="#000000"><syllabic>begin</syllabic><text>my</text></lyric></note><note><pitch><step>F</step><octave>4</octave></pitch><duration>384</duration><voice>1</voice><type>half</type><staff>1</staff><lyric number="1" color="#000000"><syllabic>end</syllabic><text>self,</text></lyric></note><backup><duration>768</duration></backup><attributes/><note><pitch><step>D</step><octave>3</octave></pitch><duration>384</duration><voice>3</voice><type>half</type><staff>2</staff></note><note><chord/><pitch><step>F</step><octave>3</octave></pitch><duration>384</duration><voice>3</voice><type>half</type><staff>2</staff></note><note><chord/><pitch><step>B</step><alter>-1</alter><octave>3</octave></pitch><duration>384</duration><voice>3</voice><type>half</type><staff>2</staff></note><note><pitch><step>D</step><octave>3</octave></pitch><duration>384</duration><voice>3</voice><type>half</type><staff>2</staff></note><note><chord/><pitch><step>F</step><octave>3</octave></pitch><duration>384</duration><voice>3</voice><type>half</type><staff>2</staff></note><note><chord/><pitch><step>B</step><alter>-1</alter><octave>3</octave></pitch><duration>384</duration><voice>3</voice><type>half</type><staff>2</staff></note></measure><measure number="7"><harmony><root><root-step>C</root-step></root><kind/><kind>major</kind></harmony><note><rest/><duration>192</duration><voice>1</voice><type>quarter</type><staff>1</staff></note><note><pitch><step>F</step><octave>4</octave></pitch><duration>96</duration><voice>1</voice><type>eighth</type><staff>1</staff><beam number="1">begin</beam><lyric number="1" color="#000000"><syllabic>single</syllabic><text>"What</text></lyric></note><note><pitch><step>F</step><octave>4</octave></pitch><duration>96</duration><voice>1</voice><type>eighth</type><staff>1</staff><beam number="1">end</beam><lyric number="1" color="#000000"><syllabic>single</syllabic><text>a</text></lyric></note><note><pitch><step>E</step><octave>4</octave></pitch><duration>192</duration><voice>1</voice><type>quarter</type><duration>128</duration><time-modification><actual-notes>3</actual-notes><normal-notes>2</normal-notes><normal-type>half</normal-type></time-modification><staff>1</staff><notations><tuplet type="start" number="1"><tuplet-actual><tuplet-number>3</tuplet-number><tuplet-type>quarter</tuplet-type></tuplet-actual><tuplet-normal><tuplet-number>1</tuplet-number><tuplet-type>half</tuplet-type></tuplet-normal></tuplet></notations><lyric number="1" color="#000000"><syllabic>begin</syllabic><text>won</text></lyric></note><note><pitch><step>F</step><octave>4</octave></pitch><duration>192</duration><voice>1</voice><type>quarter</type><duration>128</duration><time-modification><actual-notes>3</actual-notes><normal-notes>2</normal-notes><normal-type>half</normal-type></time-modification><staff>1</staff><lyric number="1" color="#000000"><syllabic>middle</syllabic><text>der</text></lyric></note><note><pitch><step>G</step><octave>4</octave></pitch><duration>192</duration><voice>1</voice><type>quarter</type><duration>128</duration><time-modification><actual-notes>3</actual-notes><normal-notes>2</normal-notes><normal-type>half</normal-type></time-modification><staff>1</staff><notations><tuplet type="stop" number="1"/></notations><lyric number="1" color="#000000"><syllabic>end</syllabic><text>ful</text></lyric></note><backup><duration>768</duration></backup><attributes/><note><pitch><step>E</step><octave>3</octave></pitch><duration>384</duration><voice>3</voice><type>half</type><staff>2</staff></note><note><chord/><pitch><step>G</step><octave>3</octave></pitch><duration>384</duration><voice>3</voice><type>half</type><staff>2</staff></note><note><chord/><pitch><step>C</step><octave>4</octave></pitch><duration>384</duration><voice>3</voice><type>half</type><staff>2</staff></note><note><pitch><step>E</step><octave>3</octave></pitch><duration>384</duration><voice>3</voice><type>half</type><staff>2</staff></note><note><chord/><pitch><step>G</step><octave>3</octave></pitch><duration>384</duration><voice>3</voice><type>half</type><staff>2</staff></note><note><chord/><pitch><step>C</step><octave>4</octave></pitch><duration>384</duration><voice>3</voice><type>half</type><staff>2</staff></note></measure><measure number="8"><harmony><root><root-step>F</root-step></root><kind/><kind>major</kind></harmony><note><pitch><step>A</step><octave>4</octave></pitch><duration>768</duration><tie type="start"/><voice>1</voice><type>whole</type><staff>1</staff><notations><tied type="start"/></notations><lyric number="1" color="#000000"><syllabic>single</syllabic><text>world."</text><extend/></lyric></note><backup><duration>768</duration></backup><attributes/><note><pitch><step>F</step><octave>3</octave></pitch><duration>384</duration><voice>3</voice><type>half</type><staff>2</staff></note><note><chord/><pitch><step>A</step><octave>3</octave></pitch><duration>384</duration><voice>3</voice><type>half</type><staff>2</staff></note><note><chord/><pitch><step>C</step><octave>4</octave></pitch><duration>384</duration><voice>3</voice><type>half</type><staff>2</staff></note><note><pitch><step>F</step><octave>3</octave></pitch><duration>384</duration><voice>3</voice><type>half</type><staff>2</staff></note><note><chord/><pitch><step>A</step><octave>3</octave></pitch><duration>384</duration><voice>3</voice><type>half</type><staff>2</staff></note><note><chord/><pitch><step>C</step><octave>4</octave></pitch><duration>384</duration><voice>3</voice><type>half</type><staff>2</staff></note></measure><measure number="9"><harmony><root><root-step>B</root-step><root-alter>-1</root-alter></root><kind/><kind>major</kind></harmony><note><pitch><step>A</step><octave>4</octave></pitch><duration>384</duration><tie type="stop"/><voice>1</voice><type>half</type><staff>1</staff><notations><tied type="stop"/></notations></note><harmony><root><root-step>C</root-step></root><kind/><kind>major</kind></harmony><note><rest/><duration>192</duration><voice>1</voice><type>quarter</type><staff>1</staff></note><note><pitch><step>C</step><octave>4</octave></pitch><duration>96</duration><voice>1</voice><type>eighth</type><staff>1</staff><beam number="1">begin</beam><lyric number="1" color="#000000"><syllabic>single</syllabic><text>I</text></lyric></note><note><pitch><step>D</step><octave>4</octave></pitch><duration>96</duration><voice>1</voice><type>eighth</type><staff>1</staff><beam number="1">end</beam><lyric number="1" color="#000000"><syllabic>single</syllabic><text>see</text></lyric></note><backup><duration>768</duration></backup><attributes/><note><pitch><step>F</step><octave>3</octave></pitch><duration>384</duration><voice>3</voice><type>half</type><staff>2</staff></note><note><chord/><pitch><step>B</step><alter>-1</alter><octave>3</octave></pitch><duration>384</duration><voice>3</voice><type>half</type><staff>2</staff></note><note><chord/><pitch><step>D</step><octave>4</octave></pitch><duration>384</duration><voice>3</voice><type>half</type><staff>2</staff></note><note><pitch><step>E</step><octave>3</octave></pitch><duration>384</duration><voice>3</voice><type>half</type><staff>2</staff></note><note><chord/><pitch><step>B</step><alter>-1</alter><octave>3</octave></pitch><duration>384</duration><voice>3</voice><type>half</type><staff>2</staff></note><note><chord/><pitch><step>C</step><octave>4</octave></pitch><duration>384</duration><voice>3</voice><type>half</type><staff>2</staff></note></measure><measure number="10"><harmony><root><root-step>F</root-step></root><kind/><kind>major</kind></harmony><note><pitch><step>F</step><octave>4</octave></pitch><duration>192</duration><voice>1</voice><type>quarter</type><staff>1</staff><lyric number="1" color="#000000"><syllabic>single</syllabic><text>skies</text></lyric></note><note><pitch><step>F</step><octave>4</octave></pitch><duration>192</duration><voice>1</voice><type>quarter</type><staff>1</staff><lyric number="1" color="#000000"><syllabic>single</syllabic><text>of</text></lyric></note><harmony><root><root-step>A</root-step></root><kind text="m"/><kind text="m">minor</kind></harmony><note><pitch><step>C</step><octave>5</octave></pitch><duration>384</duration><voice>1</voice><type>half</type><staff>1</staff><lyric number="1" color="#000000"><syllabic>single</syllabic><text>blue,</text></lyric></note><backup><duration>768</duration></backup><attributes/><note><pitch><step>F</step><octave>3</octave></pitch><duration>384</duration><voice>3</voice><type>half</type><staff>2</staff></note><note><chord/><pitch><step>A</step><octave>3</octave></pitch><duration>384</duration><voice>3</voice><type>half</type><staff>2</staff></note><note><chord/><pitch><step>C</step><octave>4</octave></pitch><duration>384</duration><voice>3</voice><type>half</type><staff>2</staff></note><note><pitch><step>E</step><octave>3</octave></pitch><duration>384</duration><voice>3</voice><type>half</type><staff>2</staff></note><note><chord/><pitch><step>A</step><octave>3</octave></pitch><duration>384</duration><voice>3</voice><type>half</type><staff>2</staff></note><note><chord/><pitch><step>C</step><octave>4</octave></pitch><duration>384</duration><voice>3</voice><type>half</type><staff>2</staff></note></measure><measure number="11"><harmony><root><root-step>B</root-step><root-alter>-1</root-alter></root><kind/><kind>major</kind></harmony><note><rest/><duration>96</duration><voice>1</voice><type>eighth</type><staff>1</staff></note><note><pitch><step>D</step><octave>5</octave></pitch><duration>96</duration><voice>1</voice><type>eighth</type><staff>1</staff><lyric number="1" color="#000000"><syllabic>single</syllabic><text>and</text></lyric></note><note><pitch><step>D</step><octave>5</octave></pitch><duration>96</duration><voice>1</voice><type>eighth</type><staff>1</staff><beam number="1">begin</beam><lyric number="1" color="#000000"><syllabic>single</syllabic><text>clouds</text></lyric></note><note><pitch><step>D</step><octave>5</octave></pitch><duration>96</duration><voice>1</voice><type>eighth</type><staff>1</staff><beam number="1">end</beam><lyric number="1" color="#000000"><syllabic>single</syllabic><text>of</text></lyric></note><harmony><root><root-step>A</root-step></root><kind text="m"/><kind text="m">minor</kind></harmony><note><pitch><step>C</step><octave>5</octave></pitch><duration>384</duration><voice>1</voice><type>half</type><staff>1</staff><lyric number="1" color="#000000"><syllabic>single</syllabic><text>white,</text></lyric></note><backup><duration>768</duration></backup><attributes/><note><pitch><step>D</step><octave>3</octave></pitch><duration>384</duration><voice>3</voice><type>half</type><staff>2</staff></note><note><chord/><pitch><step>F</step><octave>3</octave></pitch><duration>384</duration><voice>3</voice><type>half</type><staff>2</staff></note><note><chord/><pitch><step>B</step><alter>-1</alter><octave>3</octave></pitch><duration>384</duration><voice>3</voice><type>half</type><staff>2</staff></note><note><pitch><step>C</step><octave>3</octave></pitch><duration>384</duration><voice>3</voice><type>half</type><staff>2</staff></note><note><chord/><pitch><step>E</step><octave>3</octave></pitch><duration>384</duration><voice>3</voice><type>half</type><staff>2</staff></note><note><chord/><pitch><step>A</step><octave>3</octave></pitch><duration>384</duration><voice>3</voice><type>half</type><staff>2</staff></note></measure><measure number="12"><harmony><root><root-step>G</root-step></root><kind text="m"/><kind text="m">minor</kind></harmony><note><rest/><duration>96</duration><voice>1</voice><type>eighth</type><staff>1</staff></note><note><pitch><step>B</step><alter>-1</alter><octave>4</octave></pitch><duration>96</duration><voice>1</voice><type>eighth</type><staff>1</staff><lyric number="1" color="#000000"><syllabic>single</syllabic><text>Bright</text></lyric></note><note><pitch><step>B</step><alter>-1</alter><octave>4</octave></pitch><duration>96</duration><voice>1</voice><type>eighth</type><staff>1</staff><beam number="1">begin</beam><lyric number="1" color="#000000"><syllabic>begin</syllabic><text>bless</text></lyric></note><note><pitch><step>B</step><alter>-1</alter><octave>4</octave></pitch><duration>96</duration><voice>1</voice><type>eighth</type><staff>1</staff><beam number="1">end</beam><lyric number="1" color="#000000"><syllabic>end</syllabic><text>ed</text></lyric></note><harmony><root><root-step>F</root-step></root><kind/><kind>major</kind></harmony><note><pitch><step>A</step><octave>4</octave></pitch><duration>384</duration><voice>1</voice><type>half</type><staff>1</staff><lyric number="1" color="#000000"><syllabic>single</syllabic><text>day,</text></lyric></note><backup><duration>768</duration></backup><attributes/><note><pitch><step>D</step><octave>3</octave></pitch><duration>384</duration><voice>3</voice><type>half</type><staff>2</staff></note><note><chord/><pitch><step>G</step><octave>3</octave></pitch><duration>384</duration><voice>3</voice><type>half</type><staff>2</staff></note><note><chord/><pitch><step>B</step><alter>-1</alter><octave>3</octave></pitch><duration>384</duration><voice>3</voice><type>half</type><staff>2</staff></note><note><pitch><step>C</step><octave>3</octave></pitch><duration>384</duration><voice>3</voice><type>half</type><staff>2</staff></note><note><chord/><pitch><step>F</step><octave>3</octave></pitch><duration>384</duration><voice>3</voice><type>half</type><staff>2</staff></note><note><chord/><pitch><step>A</step><octave>3</octave></pitch><duration>384</duration><voice>3</voice><type>half</type><staff>2</staff></note></measure><measure number="13"><harmony><root><root-step>A</root-step></root><kind text="7"/><kind text="7">dominant</kind></harmony><note><rest/><duration>96</duration><voice>1</voice><type>eighth</type><staff>1</staff></note><note><pitch><step>G</step><octave>4</octave></pitch><duration>96</duration><voice>1</voice><type>eighth</type><staff>1</staff><lyric number="1" color="#000000"><syllabic>single</syllabic><text>dark</text></lyric></note><note><pitch><step>G</step><octave>4</octave></pitch><duration>96</duration><voice>1</voice><type>eighth</type><staff>1</staff><beam number="1">begin</beam><lyric number="1" color="#000000"><syllabic>begin</syllabic><text>sa</text></lyric></note><note><pitch><step>G</step><octave>4</octave></pitch><duration>96</duration><voice>1</voice><type>eighth</type><staff>1</staff><beam number="1">end</beam><lyric number="1" color="#000000"><syllabic>end</syllabic><text>cred</text></lyric></note><harmony><root><root-step>D</root-step></root><kind text="m"/><kind text="m">minor</kind></harmony><note><pitch><step>F</step><octave>4</octave></pitch><duration>192</duration><voice>1</voice><type>quarter</type><staff>1</staff><lyric number="1" color="#000000"><syllabic>single</syllabic><text>night.</text></lyric></note><note><pitch><step>F</step><octave>4</octave></pitch><duration>96</duration><voice>1</voice><type>eighth</type><staff>1</staff><beam number="1">begin</beam><lyric number="1" color="#000000"><syllabic>single</syllabic><text>And</text></lyric></note><note><pitch><step>F</step><octave>4</octave></pitch><duration>96</duration><voice>1</voice><type>eighth</type><staff>1</staff><beam number="1">end</beam><lyric number="1" color="#000000"><syllabic>single</syllabic><text>I</text></lyric></note><backup><duration>768</duration></backup><attributes/><note><pitch><step>C</step><alter>1</alter><octave>3</octave></pitch><duration>384</duration><voice>3</voice><type>half</type><accidental>sharp</accidental><staff>2</staff></note><note><chord/><pitch><step>G</step><octave>3</octave></pitch><duration>384</duration><voice>3</voice><type>half</type><staff>2</staff></note><note><chord/><pitch><step>A</step><octave>3</octave></pitch><duration>384</duration><voice>3</voice><type>half</type><staff>2</staff></note><note><pitch><step>D</step><octave>3</octave></pitch><duration>384</duration><voice>3</voice><type>half</type><staff>2</staff></note><note><chord/><pitch><step>F</step><octave>3</octave></pitch><duration>384</duration><voice>3</voice><type>half</type><staff>2</staff></note><note><chord/><pitch><step>A</step><octave>3</octave></pitch><duration>384</duration><voice>3</voice><type>half</type><staff>2</staff></note></measure><measure number="14"><harmony><root><root-step>B</root-step><root-alter>-1</root-alter></root><kind/><kind>major</kind></harmony><note><pitch><step>F</step><octave>4</octave></pitch><duration>192</duration><voice>1</voice><type>quarter</type><duration>128</duration><time-modification><actual-notes>3</actual-notes><normal-notes>2</normal-notes><normal-type>half</normal-type></time-modification><staff>1</staff><notations><tuplet type="start" number="1"><tuplet-actual><tuplet-number>3</tuplet-number><tuplet-type>quarter</tuplet-type></tuplet-actual><tuplet-normal><tuplet-number>1</tuplet-number><tuplet-type>half</tuplet-type></tuplet-normal></tuplet></notations><lyric number="1" color="#000000"><syllabic>single</syllabic><text>think</text></lyric></note><note><pitch><step>F</step><octave>4</octave></pitch><duration>192</duration><voice>1</voice><type>quarter</type><duration>128</duration><time-modification><actual-notes>3</actual-notes><normal-notes>2</normal-notes><normal-type>half</normal-type></time-modification><staff>1</staff><lyric number="1" color="#000000"><syllabic>single</syllabic><text>to</text></lyric></note><note><pitch><step>F</step><octave>4</octave></pitch><duration>192</duration><voice>1</voice><type>quarter</type><duration>128</duration><time-modification><actual-notes>3</actual-notes><normal-notes>2</normal-notes><normal-type>half</normal-type></time-modification><staff>1</staff><notations><tuplet type="stop" number="1"/></notations><lyric number="1" color="#000000"><syllabic>begin</syllabic><text>my</text></lyric></note><note><pitch><step>F</step><octave>4</octave></pitch><duration>384</duration><voice>1</voice><type>half</type><staff>1</staff><lyric number="1" color="#000000"><syllabic>end</syllabic><text>self,</text></lyric></note><backup><duration>768</duration></backup><attributes/><note><pitch><step>D</step><octave>3</octave></pitch><duration>384</duration><voice>3</voice><type>half</type><staff>2</staff></note><note><chord/><pitch><step>F</step><octave>3</octave></pitch><duration>384</duration><voice>3</voice><type>half</type><staff>2</staff></note><note><chord/><pitch><step>B</step><alter>-1</alter><octave>3</octave></pitch><duration>384</duration><voice>3</voice><type>half</type><staff>2</staff></note><note><pitch><step>D</step><octave>3</octave></pitch><duration>384</duration><voice>3</voice><type>half</type><staff>2</staff></note><note><chord/><pitch><step>F</step><octave>3</octave></pitch><duration>384</duration><voice>3</voice><type>half</type><staff>2</staff></note><note><chord/><pitch><step>B</step><alter>-1</alter><octave>3</octave></pitch><duration>384</duration><voice>3</voice><type>half</type><staff>2</staff></note></measure><measure number="15"><harmony><root><root-step>C</root-step></root><kind/><kind>major</kind></harmony><note><rest/><duration>192</duration><voice>1</voice><type>quarter</type><staff>1</staff></note><note><pitch><step>F</step><octave>4</octave></pitch><duration>96</duration><voice>1</voice><type>eighth</type><staff>1</staff><beam number="1">begin</beam><lyric number="1" color="#000000"><syllabic>single</syllabic><text>"What</text></lyric></note><note><pitch><step>F</step><octave>4</octave></pitch><duration>96</duration><voice>1</voice><type>eighth</type><staff>1</staff><beam number="1">end</beam><lyric number="1" color="#000000"><syllabic>single</syllabic><text>a</text></lyric></note><note><pitch><step>E</step><octave>4</octave></pitch><duration>192</duration><voice>1</voice><type>quarter</type><duration>128</duration><time-modification><actual-notes>3</actual-notes><normal-notes>2</normal-notes><normal-type>half</normal-type></time-modification><staff>1</staff><notations><tuplet type="start" number="1"><tuplet-actual><tuplet-number>3</tuplet-number><tuplet-type>quarter</tuplet-type></tuplet-actual><tuplet-normal><tuplet-number>1</tuplet-number><tuplet-type>half</tuplet-type></tuplet-normal></tuplet></notations><lyric number="1" color="#000000"><syllabic>begin</syllabic><text>won</text></lyric></note><note><pitch><step>F</step><octave>4</octave></pitch><duration>192</duration><voice>1</voice><type>quarter</type><duration>128</duration><time-modification><actual-notes>3</actual-notes><normal-notes>2</normal-notes><normal-type>half</normal-type></time-modification><staff>1</staff><lyric number="1" color="#000000"><syllabic>middle</syllabic><text>der</text></lyric></note><note><pitch><step>G</step><octave>4</octave></pitch><duration>192</duration><voice>1</voice><type>quarter</type><duration>128</duration><time-modification><actual-notes>3</actual-notes><normal-notes>2</normal-notes><normal-type>half</normal-type></time-modification><staff>1</staff><notations><tuplet type="stop" number="1"/></notations><lyric number="1" color="#000000"><syllabic>end</syllabic><text>ful</text></lyric></note><backup><duration>768</duration></backup><attributes/><note><pitch><step>E</step><octave>3</octave></pitch><duration>384</duration><voice>3</voice><type>half</type><staff>2</staff></note><note><chord/><pitch><step>G</step><octave>3</octave></pitch><duration>384</duration><voice>3</voice><type>half</type><staff>2</staff></note><note><chord/><pitch><step>C</step><octave>4</octave></pitch><duration>384</duration><voice>3</voice><type>half</type><staff>2</staff></note><note><pitch><step>E</step><octave>3</octave></pitch><duration>384</duration><voice>3</voice><type>half</type><staff>2</staff></note><note><chord/><pitch><step>G</step><octave>3</octave></pitch><duration>384</duration><voice>3</voice><type>half</type><staff>2</staff></note><note><chord/><pitch><step>C</step><octave>4</octave></pitch><duration>384</duration><voice>3</voice><type>half</type><staff>2</staff></note></measure><measure number="16"><harmony><root><root-step>F</root-step></root><kind/><kind>major</kind></harmony><note><pitch><step>F</step><octave>4</octave></pitch><duration>768</duration><tie type="start"/><voice>1</voice><type>whole</type><staff>1</staff><notations><tied type="start"/></notations><lyric number="1" color="#000000"><syllabic>single</syllabic><text>world."</text><extend/></lyric></note><backup><duration>768</duration></backup><attributes/><note><pitch><step>F</step><octave>3</octave></pitch><duration>384</duration><voice>3</voice><type>half</type><staff>2</staff></note><note><chord/><pitch><step>A</step><octave>3</octave></pitch><duration>384</duration><voice>3</voice><type>half</type><staff>2</staff></note><note><chord/><pitch><step>C</step><octave>4</octave></pitch><duration>384</duration><voice>3</voice><type>half</type><staff>2</staff></note><note><pitch><step>F</step><octave>3</octave></pitch><duration>384</duration><voice>3</voice><type>half</type><staff>2</staff></note><note><chord/><pitch><step>A</step><octave>3</octave></pitch><duration>384</duration><voice>3</voice><type>half</type><staff>2</staff></note><note><chord/><pitch><step>C</step><octave>4</octave></pitch><duration>384</duration><voice>3</voice><type>half</type><staff>2</staff></note></measure><measure number="17"><harmony><root><root-step>B</root-step><root-alter>-1</root-alter></root><kind/><kind>major</kind></harmony><note><pitch><step>F</step><octave>4</octave></pitch><duration>384</duration><tie type="stop"/><voice>1</voice><type>half</type><staff>1</staff><notations><tied type="stop"/></notations></note><harmony><root><root-step>F</root-step></root><kind/><kind>major</kind></harmony><note><rest/><duration>192</duration><voice>1</voice><type>quarter</type><staff>1</staff></note><note><pitch><step>F</step><octave>4</octave></pitch><duration>192</duration><voice>1</voice><type>quarter</type><staff>1</staff><lyric number="1" color="#000000"><syllabic>single</syllabic><text>The</text></lyric></note><backup><duration>768</duration></backup><attributes/><note><pitch><step>F</step><octave>3</octave></pitch><duration>384</duration><voice>3</voice><type>half</type><staff>2</staff></note><note><chord/><pitch><step>B</step><alter>-1</alter><octave>3</octave></pitch><duration>384</duration><voice>3</voice><type>half</type><staff>2</staff></note><note><chord/><pitch><step>D</step><octave>4</octave></pitch><duration>384</duration><voice>3</voice><type>half</type><staff>2</staff></note><note><pitch><step>F</step><octave>3</octave></pitch><duration>384</duration><voice>3</voice><type>half</type><staff>2</staff></note><note><chord/><pitch><step>A</step><octave>3</octave></pitch><duration>384</duration><voice>3</voice><type>half</type><staff>2</staff></note><note><chord/><pitch><step>C</step><octave>4</octave></pitch><duration>384</duration><voice>3</voice><type>half</type><staff>2</staff></note><barline location="right"><bar-style>light-light</bar-style></barline></measure><measure number="18"><harmony><root><root-step>C</root-step></root><kind/><kind>major</kind></harmony><note><pitch><step>G</step><octave>4</octave></pitch><duration>96</duration><voice>1</voice><type>eighth</type><staff>1</staff><beam number="1">begin</beam><lyric number="1" color="#000000"><syllabic>begin</syllabic><text>col</text></lyric></note><note><pitch><step>G</step><octave>4</octave></pitch><duration>96</duration><voice>1</voice><type>eighth</type><staff>1</staff><beam number="1">end</beam><lyric number="1" color="#000000"><syllabic>end</syllabic><text>ors</text></lyric></note><note><pitch><step>G</step><octave>4</octave></pitch><duration>96</duration><voice>1</voice><type>eighth</type><staff>1</staff><beam number="1">begin</beam><lyric number="1" color="#000000"><syllabic>single</syllabic><text>of</text></lyric></note><note><pitch><step>G</step><octave>4</octave></pitch><duration>96</duration><voice>1</voice><type>eighth</type><staff>1</staff><beam number="1">end</beam><lyric number="1" color="#000000"><syllabic>single</syllabic><text>a</text></lyric></note><note><pitch><step>G</step><octave>4</octave></pitch><duration>96</duration><voice>1</voice><type>eighth</type><staff>1</staff><lyric number="1" color="#000000"><syllabic>begin</syllabic><text>rain</text></lyric></note><note><pitch><step>G</step><octave>4</octave></pitch><duration>192</duration><voice>1</voice><type>quarter</type><staff>1</staff><lyric number="1" color="#000000"><syllabic>end</syllabic><text>bow,</text></lyric></note><note><pitch><step>C</step><octave>4</octave></pitch><duration>96</duration><voice>1</voice><type>eighth</type><staff>1</staff><lyric number="1" color="#000000"><syllabic>single</syllabic><text>so</text></lyric></note><backup><duration>768</duration></backup><attributes/><note><pitch><step>C</step><octave>3</octave></pitch><duration>768</duration><voice>3</voice><type>whole</type><staff>2</staff></note><note><chord/><pitch><step>E</step><octave>3</octave></pitch><duration>768</duration><voice>3</voice><type>whole</type><staff>2</staff></note><note><chord/><pitch><step>G</step><octave>3</octave></pitch><duration>768</duration><voice>3</voice><type>whole</type><staff>2</staff></note></measure><measure number="19"><harmony><root><root-step>F</root-step></root><kind/><kind>major</kind></harmony><note><pitch><step>A</step><octave>4</octave></pitch><duration>96</duration><voice>1</voice><type>eighth</type><staff>1</staff><beam number="1">begin</beam><lyric number="1" color="#000000"><syllabic>begin</syllabic><text>pret</text></lyric></note><note><pitch><step>A</step><octave>4</octave></pitch><duration>96</duration><voice>1</voice><type>eighth</type><staff>1</staff><beam number="1">end</beam><lyric number="1" color="#000000"><syllabic>end</syllabic><text>ty</text></lyric></note><note><pitch><step>A</step><octave>4</octave></pitch><duration>96</duration><voice>1</voice><type>eighth</type><staff>1</staff><beam number="1">begin</beam><lyric number="1" color="#000000"><syllabic>single</syllabic><text>in</text></lyric></note><note><pitch><step>A</step><octave>4</octave></pitch><duration>96</duration><voice>1</voice><type>eighth</type><staff>1</staff><beam number="1">end</beam><lyric number="1" color="#000000"><syllabic>single</syllabic><text>the</text></lyric></note><note><pitch><step>A</step><octave>4</octave></pitch><duration>288</duration><voice>1</voice><type>quarter</type><dot/><staff>1</staff><lyric number="1" color="#000000"><syllabic>single</syllabic><text>sky,</text></lyric></note><note><pitch><step>F</step><octave>4</octave></pitch><duration>96</duration><voice>1</voice><type>eighth</type><staff>1</staff><lyric number="1" color="#000000"><syllabic>single</syllabic><text>are</text></lyric></note><backup><duration>768</duration></backup><attributes/><note><pitch><step>C</step><octave>3</octave></pitch><duration>768</duration><voice>3</voice><type>whole</type><staff>2</staff></note><note><chord/><pitch><step>F</step><octave>3</octave></pitch><duration>768</duration><voice>3</voice><type>whole</type><staff>2</staff></note><note><chord/><pitch><step>A</step><octave>3</octave></pitch><duration>768</duration><voice>3</voice><type>whole</type><staff>2</staff></note></measure><measure number="20"><harmony><root><root-step>C</root-step></root><kind/><kind>major</kind></harmony><note><pitch><step>G</step><octave>4</octave></pitch><duration>96</duration><voice>1</voice><type>eighth</type><staff>1</staff><beam number="1">begin</beam><lyric number="1" color="#000000"><syllabic>begin</syllabic><text>al</text></lyric></note><note><pitch><step>G</step><octave>4</octave></pitch><duration>96</duration><voice>1</voice><type>eighth</type><staff>1</staff><beam number="1">end</beam><lyric number="1" color="#000000"><syllabic>end</syllabic><text>so</text></lyric></note><note><pitch><step>G</step><octave>4</octave></pitch><duration>96</duration><voice>1</voice><type>eighth</type><staff>1</staff><beam number="1">begin</beam><lyric number="1" color="#000000"><syllabic>single</syllabic><text>on</text></lyric></note><note><pitch><step>G</step><octave>4</octave></pitch><duration>96</duration><voice>1</voice><type>eighth</type><staff>1</staff><beam number="1">end</beam><lyric number="1" color="#000000"><syllabic>single</syllabic><text>the</text></lyric></note><note><pitch><step>G</step><octave>4</octave></pitch><duration>96</duration><voice>1</voice><type>eighth</type><staff>1</staff><lyric number="1" color="#000000"><syllabic>begin</syllabic><text>fac</text></lyric></note><note><pitch><step>G</step><octave>4</octave></pitch><duration>192</duration><voice>1</voice><type>quarter</type><staff>1</staff><lyric number="1" color="#000000"><syllabic>end</syllabic><text>es</text></lyric></note><note><pitch><step>C</step><octave>4</octave></pitch><duration>96</duration><voice>1</voice><type>eighth</type><staff>1</staff><lyric number="1" color="#000000"><syllabic>single</syllabic><text>of</text></lyric></note><backup><duration>768</duration></backup><attributes/><note><pitch><step>C</step><octave>3</octave></pitch><duration>768</duration><voice>3</voice><type>whole</type><staff>2</staff></note><note><chord/><pitch><step>E</step><octave>3</octave></pitch><duration>768</duration><voice>3</voice><type>whole</type><staff>2</staff></note><note><chord/><pitch><step>G</step><octave>3</octave></pitch><duration>768</duration><voice>3</voice><type>whole</type><staff>2</staff></note></measure><measure number="21"><harmony><root><root-step>F</root-step></root><kind/><kind>major</kind></harmony><note><pitch><step>A</step><octave>4</octave></pitch><duration>96</duration><voice>1</voice><type>eighth</type><staff>1</staff><beam number="1">begin</beam><lyric number="1" color="#000000"><syllabic>begin</syllabic><text>peo</text></lyric></note><note><pitch><step>A</step><octave>4</octave></pitch><duration>96</duration><voice>1</voice><type>eighth</type><staff>1</staff><beam number="1">end</beam><lyric number="1" color="#000000"><syllabic>end</syllabic><text>ple</text></lyric></note><note><pitch><step>A</step><octave>4</octave></pitch><duration>96</duration><voice>1</voice><type>eighth</type><staff>1</staff><beam number="1">begin</beam><lyric number="1" color="#000000"><syllabic>begin</syllabic><text>go</text></lyric></note><note><pitch><step>A</step><octave>4</octave></pitch><duration>96</duration><voice>1</voice><type>eighth</type><staff>1</staff><beam number="1">end</beam><lyric number="1" color="#000000"><syllabic>end</syllabic><text>ing</text></lyric></note><note><pitch><step>A</step><octave>4</octave></pitch><duration>192</duration><voice>1</voice><type>quarter</type><staff>1</staff><lyric number="1" color="#000000"><syllabic>single</syllabic><text>by.</text></lyric></note><note><pitch><step>A</step><octave>4</octave></pitch><duration>96</duration><voice>1</voice><type>eighth</type><staff>1</staff><beam number="1">begin</beam><lyric number="1" color="#000000"><syllabic>single</syllabic><text>I</text></lyric></note><note><pitch><step>C</step><octave>5</octave></pitch><duration>96</duration><voice>1</voice><type>eighth</type><staff>1</staff><beam number="1">end</beam><lyric number="1" color="#000000"><syllabic>single</syllabic><text>see</text></lyric></note><backup><duration>768</duration></backup><attributes/><note><pitch><step>C</step><octave>3</octave></pitch><duration>768</duration><voice>3</voice><type>whole</type><staff>2</staff></note><note><chord/><pitch><step>F</step><octave>3</octave></pitch><duration>768</duration><voice>3</voice><type>whole</type><staff>2</staff></note><note><chord/><pitch><step>A</step><octave>3</octave></pitch><duration>768</duration><voice>3</voice><type>whole</type><staff>2</staff></note></measure><measure number="22"><harmony><root><root-step>D</root-step></root><kind text="m"/><kind text="m">minor</kind></harmony><note><pitch><step>D</step><octave>5</octave></pitch><duration>192</duration><voice>1</voice><type>quarter</type><staff>1</staff><lyric number="1" color="#000000"><syllabic>single</syllabic><text>friends</text></lyric></note><note><pitch><step>D</step><octave>5</octave></pitch><duration>96</duration><voice>1</voice><type>eighth</type><staff>1</staff><beam number="1">begin</beam><lyric number="1" color="#000000"><syllabic>begin</syllabic><text>shak</text></lyric></note><note><pitch><step>D</step><octave>5</octave></pitch><duration>96</duration><voice>1</voice><type>eighth</type><staff>1</staff><beam number="1">end</beam><lyric number="1" color="#000000"><syllabic>end</syllabic><text>ing</text></lyric></note><harmony><root><root-step>A</root-step></root><kind text="m"/><kind text="m">minor</kind></harmony><note><pitch><step>C</step><octave>5</octave></pitch><duration>192</duration><voice>1</voice><type>quarter</type><staff>1</staff><lyric number="1" color="#000000"><syllabic>single</syllabic><text>hands</text></lyric></note><note><pitch><step>A</step><octave>4</octave></pitch><duration>96</duration><voice>1</voice><type>eighth</type><staff>1</staff><beam number="1">begin</beam><lyric number="1" color="#000000"><syllabic>begin</syllabic><text>say</text></lyric></note><note><pitch><step>C</step><octave>5</octave></pitch><duration>96</duration><voice>1</voice><type>eighth</type><staff>1</staff><beam number="1">end</beam><lyric number="1" color="#000000"><syllabic>end</syllabic><text>ing,</text></lyric></note><backup><duration>768</duration></backup><attributes/><note><pitch><step>D</step><octave>3</octave></pitch><duration>384</duration><voice>3</voice><type>half</type><staff>2</staff></note><note><chord/><pitch><step>F</step><octave>3</octave></pitch><duration>384</duration><voice>3</voice><type>half</type><staff>2</staff></note><note><chord/><pitch><step>A</step><octave>3</octave></pitch><duration>384</duration><voice>3</voice><type>half</type><staff>2</staff></note><note><pitch><step>C</step><octave>3</octave></pitch><duration>384</duration><voice>3</voice><type>half</type><staff>2</staff></note><note><chord/><pitch><step>E</step><octave>3</octave></pitch><duration>384</duration><voice>3</voice><type>half</type><staff>2</staff></note><note><chord/><pitch><step>A</step><octave>3</octave></pitch><duration>384</duration><voice>3</voice><type>half</type><staff>2</staff></note></measure><measure number="23"><harmony><root><root-step>D</root-step></root><kind text="m"/><kind text="m">minor</kind></harmony><note><pitch><step>D</step><octave>5</octave></pitch><duration>192</duration><voice>1</voice><type>quarter</type><staff>1</staff><lyric number="1" color="#000000"><syllabic>single</syllabic><text>"How</text></lyric></note><note><pitch><step>D</step><octave>5</octave></pitch><duration>96</duration><voice>1</voice><type>eighth</type><staff>1</staff><beam number="1">begin</beam><lyric number="1" color="#000000"><syllabic>single</syllabic><text>do</text></lyric></note><note><pitch><step>D</step><octave>5</octave></pitch><duration>96</duration><voice>1</voice><type>eighth</type><staff>1</staff><beam number="1">end</beam><lyric number="1" color="#000000"><syllabic>single</syllabic><text>you</text></lyric></note><harmony><root><root-step>A</root-step></root><kind text="m"/><kind text="m">minor</kind></harmony><note><pitch><step>C</step><octave>5</octave></pitch><duration>384</duration><voice>1</voice><type>half</type><staff>1</staff><lyric number="1" color="#000000"><syllabic>single</syllabic><text>do?"</text></lyric></note><backup><duration>768</duration></backup><attributes/><note><pitch><step>D</step><octave>3</octave></pitch><duration>384</duration><voice>3</voice><type>half</type><staff>2</staff></note><note><chord/><pitch><step>F</step><octave>3</octave></pitch><duration>384</duration><voice>3</voice><type>half</type><staff>2</staff></note><note><chord/><pitch><step>A</step><octave>3</octave></pitch><duration>384</duration><voice>3</voice><type>half</type><staff>2</staff></note><note><pitch><step>C</step><octave>3</octave></pitch><duration>384</duration><voice>3</voice><type>half</type><staff>2</staff></note><note><chord/><pitch><step>E</step><octave>3</octave></pitch><duration>384</duration><voice>3</voice><type>half</type><staff>2</staff></note><note><chord/><pitch><step>A</step><octave>3</octave></pitch><duration>384</duration><voice>3</voice><type>half</type><staff>2</staff></note></measure><measure number="24"><harmony><root><root-step>G</root-step></root><kind text="m"/><kind text="m">minor</kind></harmony><note><pitch><step>D</step><octave>5</octave></pitch><duration>192</duration><voice>1</voice><type>quarter</type><staff>1</staff><lyric number="1" color="#000000"><syllabic>single</syllabic><text>They're</text></lyric></note><note><pitch><step>D</step><octave>5</octave></pitch><duration>96</duration><voice>1</voice><type>eighth</type><staff>1</staff><beam number="1">begin</beam><lyric number="1" color="#000000"><syllabic>begin</syllabic><text>on</text></lyric></note><note><pitch><step>D</step><octave>5</octave></pitch><duration>96</duration><voice>1</voice><type>eighth</type><staff>1</staff><beam number="1">end</beam><lyric number="1" color="#000000"><syllabic>end</syllabic><text>ly</text></lyric></note><harmony><root><root-step>D</root-step></root><kind text="7"/><kind text="7">dominant</kind></harmony><note><pitch><step>C</step><octave>5</octave></pitch><duration>96</duration><voice>1</voice><type>eighth</type><staff>1</staff><beam number="1">begin</beam><lyric number="1" color="#000000"><syllabic>begin</syllabic><text>say</text></lyric></note><note><pitch><step>C</step><octave>5</octave></pitch><duration>96</duration><voice>1</voice><type>eighth</type><staff>1</staff><beam number="1">end</beam><lyric number="1" color="#000000"><syllabic>end</syllabic><text>ing,</text></lyric></note><note><rest/><duration>192</duration><voice>1</voice><type>quarter</type><staff>1</staff></note><backup><duration>768</duration></backup><attributes/><note><pitch><step>D</step><octave>3</octave></pitch><duration>384</duration><voice>3</voice><type>half</type><staff>2</staff></note><note><chord/><pitch><step>G</step><octave>3</octave></pitch><duration>384</duration><voice>3</voice><type>half</type><staff>2</staff></note><note><chord/><pitch><step>B</step><alter>-1</alter><octave>3</octave></pitch><duration>384</duration><voice>3</voice><type>half</type><staff>2</staff></note><note><pitch><step>D</step><octave>3</octave></pitch><duration>384</duration><voice>3</voice><type>half</type><staff>2</staff></note><note><chord/><pitch><step>F</step><alter>1</alter><octave>3</octave></pitch><duration>384</duration><voice>3</voice><type>half</type><accidental>sharp</accidental><staff>2</staff></note><note><chord/><pitch><step>C</step><octave>4</octave></pitch><duration>384</duration><voice>3</voice><type>half</type><staff>2</staff></note></measure><measure number="25"><harmony><root><root-step>B</root-step><root-alter>-1</root-alter></root><kind/><kind>major</kind></harmony><note><pitch><step>B</step><alter>-1</alter><octave>4</octave></pitch><duration>192</duration><voice>1</voice><type>quarter</type><staff>1</staff><lyric number="1" color="#000000"><syllabic>single</syllabic><text>"I</text></lyric></note><note><pitch><step>A</step><octave>4</octave></pitch><duration>192</duration><voice>1</voice><type>quarter</type><staff>1</staff><lyric number="1" color="#000000"><syllabic>single</syllabic><text>love</text></lyric></note><harmony><root><root-step>C</root-step></root><kind/><kind>major</kind></harmony><note><pitch><step>G</step><octave>4</octave></pitch><duration>192</duration><voice>1</voice><type>quarter</type><staff>1</staff><lyric number="1" color="#000000"><syllabic>single</syllabic><text>you."</text></lyric></note><note><pitch><step>C</step><octave>4</octave></pitch><duration>96</duration><voice>1</voice><type>eighth</type><staff>1</staff><beam number="1">begin</beam><lyric number="1" color="#000000"><syllabic>single</syllabic><text>I</text></lyric></note><note><pitch><step>D</step><octave>4</octave></pitch><duration>96</duration><voice>1</voice><type>eighth</type><staff>1</staff><beam number="1">end</beam><lyric number="1" color="#000000"><syllabic>single</syllabic><text>hear</text></lyric></note><backup><duration>768</duration></backup><attributes/><note><pitch><step>D</step><octave>3</octave></pitch><duration>384</duration><voice>3</voice><type>half</type><staff>2</staff></note><note><chord/><pitch><step>G</step><octave>3</octave></pitch><duration>384</duration><voice>3</voice><type>half</type><staff>2</staff></note><note><chord/><pitch><step>B</step><alter>-1</alter><octave>3</octave></pitch><duration>384</duration><voice>3</voice><type>half</type><staff>2</staff></note><note><pitch><step>E</step><octave>3</octave></pitch><duration>384</duration><voice>3</voice><type>half</type><staff>2</staff></note><note><chord/><pitch><step>G</step><octave>3</octave></pitch><duration>384</duration><voice>3</voice><type>half</type><staff>2</staff></note><note><chord/><pitch><step>C</step><octave>4</octave></pitch><duration>384</duration><voice>3</voice><type>half</type><staff>2</staff></note></measure><measure number="26"><harmony><root><root-step>F</root-step></root><kind/><kind>major</kind></harmony><note><pitch><step>F</step><octave>4</octave></pitch><duration>192</duration><voice>1</voice><type>quarter</type><staff>1</staff><lyric number="1" color="#000000"><syllabic>begin</syllabic><text>bab</text></lyric></note><note><pitch><step>F</step><octave>4</octave></pitch><duration>192</duration><voice>1</voice><type>quarter</type><staff>1</staff><lyric number="1" color="#000000"><syllabic>end</syllabic><text>ies</text></lyric></note><harmony><root><root-step>A</root-step></root><kind text="m"/><kind text="m">minor</kind></harmony><note><pitch><step>C</step><octave>5</octave></pitch><duration>384</duration><voice>1</voice><type>half</type><staff>1</staff><lyric number="1" color="#000000"><syllabic>single</syllabic><text>cry;</text></lyric></note><backup><duration>768</duration></backup><attributes/><note><pitch><step>F</step><octave>3</octave></pitch><duration>384</duration><voice>3</voice><type>half</type><staff>2</staff></note><note><chord/><pitch><step>A</step><octave>3</octave></pitch><duration>384</duration><voice>3</voice><type>half</type><staff>2</staff></note><note><chord/><pitch><step>C</step><octave>4</octave></pitch><duration>384</duration><voice>3</voice><type>half</type><staff>2</staff></note><note><pitch><step>E</step><octave>3</octave></pitch><duration>384</duration><voice>3</voice><type>half</type><staff>2</staff></note><note><chord/><pitch><step>A</step><octave>3</octave></pitch><duration>384</duration><voice>3</voice><type>half</type><staff>2</staff></note><note><chord/><pitch><step>C</step><octave>4</octave></pitch><duration>384</duration><voice>3</voice><type>half</type><staff>2</staff></note></measure><measure number="27"><harmony><root><root-step>B</root-step><root-alter>-1</root-alter></root><kind/><kind>major</kind></harmony><note><rest/><duration>96</duration><voice>1</voice><type>eighth</type><staff>1</staff></note><note><pitch><step>D</step><octave>5</octave></pitch><duration>96</duration><voice>1</voice><type>eighth</type><staff>1</staff><lyric number="1" color="#000000"><syllabic>single</syllabic><text>I</text></lyric></note><note><pitch><step>D</step><octave>5</octave></pitch><duration>96</duration><voice>1</voice><type>eighth</type><staff>1</staff><beam number="1">begin</beam><lyric number="1" color="#000000"><syllabic>single</syllabic><text>watch</text></lyric></note><note><pitch><step>D</step><octave>5</octave></pitch><duration>96</duration><voice>1</voice><type>eighth</type><staff>1</staff><beam number="1">end</beam><lyric number="1" color="#000000"><syllabic>single</syllabic><text>them</text></lyric></note><harmony><root><root-step>A</root-step></root><kind text="m"/><kind text="m">minor</kind></harmony><note><pitch><step>C</step><octave>5</octave></pitch><duration>384</duration><voice>1</voice><type>half</type><staff>1</staff><lyric number="1" color="#000000"><syllabic>single</syllabic><text>grow</text></lyric></note><backup><duration>768</duration></backup><attributes/><note><pitch><step>D</step><octave>3</octave></pitch><duration>384</duration><voice>3</voice><type>half</type><staff>2</staff></note><note><chord/><pitch><step>F</step><octave>3</octave></pitch><duration>384</duration><voice>3</voice><type>half</type><staff>2</staff></note><note><chord/><pitch><step>B</step><alter>-1</alter><octave>3</octave></pitch><duration>384</duration><voice>3</voice><type>half</type><staff>2</staff></note><note><pitch><step>C</step><octave>3</octave></pitch><duration>384</duration><voice>3</voice><type>half</type><staff>2</staff></note><note><chord/><pitch><step>E</step><octave>3</octave></pitch><duration>384</duration><voice>3</voice><type>half</type><staff>2</staff></note><note><chord/><pitch><step>A</step><octave>3</octave></pitch><duration>384</duration><voice>3</voice><type>half</type><staff>2</staff></note></measure><measure number="28"><harmony><root><root-step>G</root-step></root><kind text="m"/><kind text="m">minor</kind></harmony><note><rest/><duration>96</duration><voice>1</voice><type>eighth</type><staff>1</staff></note><note><pitch><step>B</step><alter>-1</alter><octave>4</octave></pitch><duration>96</duration><voice>1</voice><type>eighth</type><staff>1</staff><lyric number="1" color="#000000"><syllabic>single</syllabic><text>They'll</text></lyric></note><note><pitch><step>B</step><alter>-1</alter><octave>4</octave></pitch><duration>96</duration><voice>1</voice><type>eighth</type><staff>1</staff><beam number="1">begin</beam><lyric number="1" color="#000000"><syllabic>single</syllabic><text>learn</text></lyric></note><note><pitch><step>B</step><alter>-1</alter><octave>4</octave></pitch><duration>96</duration><voice>1</voice><type>eighth</type><staff>1</staff><beam number="1">end</beam><lyric number="1" color="#000000"><syllabic>single</syllabic><text>much</text></lyric></note><harmony><root><root-step>F</root-step></root><kind/><kind>major</kind></harmony><note><pitch><step>A</step><octave>4</octave></pitch><duration>384</duration><voice>1</voice><type>half</type><staff>1</staff><lyric number="1" color="#000000"><syllabic>single</syllabic><text>more</text></lyric></note><backup><duration>768</duration></backup><attributes/><note><pitch><step>D</step><octave>3</octave></pitch><duration>384</duration><voice>3</voice><type>half</type><staff>2</staff></note><note><chord/><pitch><step>G</step><octave>3</octave></pitch><duration>384</duration><voice>3</voice><type>half</type><staff>2</staff></note><note><chord/><pitch><step>B</step><alter>-1</alter><octave>3</octave></pitch><duration>384</duration><voice>3</voice><type>half</type><staff>2</staff></note><note><pitch><step>C</step><octave>3</octave></pitch><duration>384</duration><voice>3</voice><type>half</type><staff>2</staff></note><note><chord/><pitch><step>F</step><octave>3</octave></pitch><duration>384</duration><voice>3</voice><type>half</type><staff>2</staff></note><note><chord/><pitch><step>A</step><octave>3</octave></pitch><duration>384</duration><voice>3</voice><type>half</type><staff>2</staff></note></measure><measure number="29"><harmony><root><root-step>A</root-step></root><kind text="7"/><kind text="7">dominant</kind></harmony><note><rest/><duration>96</duration><voice>1</voice><type>eighth</type><staff>1</staff></note><note><pitch><step>G</step><octave>4</octave></pitch><duration>96</duration><voice>1</voice><type>eighth</type><staff>1</staff><lyric number="1" color="#000000"><syllabic>single</syllabic><text>I'll</text></lyric></note><note><pitch><step>G</step><octave>4</octave></pitch><duration>96</duration><voice>1</voice><type>eighth</type><staff>1</staff><beam number="1">begin</beam><lyric number="1" color="#000000"><syllabic>begin</syllabic><text>ev</text></lyric></note><note><pitch><step>G</step><octave>4</octave></pitch><duration>96</duration><voice>1</voice><type>eighth</type><staff>1</staff><beam number="1">end</beam><lyric number="1" color="#000000"><syllabic>end</syllabic><text>er</text></lyric></note><harmony><root><root-step>D</root-step></root><kind text="m"/><kind text="m">minor</kind></harmony><note><pitch><step>F</step><octave>4</octave></pitch><duration>192</duration><voice>1</voice><type>quarter</type><staff>1</staff><lyric number="1" color="#000000"><syllabic>single</syllabic><text>know.</text></lyric></note><note><pitch><step>F</step><octave>4</octave></pitch><duration>96</duration><voice>1</voice><type>eighth</type><staff>1</staff><beam number="1">begin</beam><lyric number="1" color="#000000"><syllabic>single</syllabic><text>And</text></lyric></note><note><pitch><step>F</step><octave>4</octave></pitch><duration>96</duration><voice>1</voice><type>eighth</type><staff>1</staff><beam number="1">end</beam><lyric number="1" color="#000000"><syllabic>single</syllabic><text>I</text></lyric></note><backup><duration>768</duration></backup><attributes/><note><pitch><step>C</step><alter>1</alter><octave>3</octave></pitch><duration>384</duration><voice>3</voice><type>half</type><accidental>sharp</accidental><staff>2</staff></note><note><chord/><pitch><step>G</step><octave>3</octave></pitch><duration>384</duration><voice>3</voice><type>half</type><staff>2</staff></note><note><chord/><pitch><step>A</step><octave>3</octave></pitch><duration>384</duration><voice>3</voice><type>half</type><staff>2</staff></note><note><pitch><step>D</step><octave>3</octave></pitch><duration>384</duration><voice>3</voice><type>half</type><staff>2</staff></note><note><chord/><pitch><step>F</step><octave>3</octave></pitch><duration>384</duration><voice>3</voice><type>half</type><staff>2</staff></note><note><chord/><pitch><step>A</step><octave>3</octave></pitch><duration>384</duration><voice>3</voice><type>half</type><staff>2</staff></note></measure><measure number="30"><harmony><root><root-step>B</root-step><root-alter>-1</root-alter></root><kind/><kind>major</kind></harmony><note><pitch><step>F</step><octave>4</octave></pitch><duration>192</duration><voice>1</voice><type>quarter</type><duration>128</duration><time-modification><actual-notes>3</actual-notes><normal-notes>2</normal-notes><normal-type>half</normal-type></time-modification><staff>1</staff><notations><tuplet type="start" number="1"><tuplet-actual><tuplet-number>3</tuplet-number><tuplet-type>quarter</tuplet-type></tuplet-actual><tuplet-normal><tuplet-number>1</tuplet-number><tuplet-type>half</tuplet-type></tuplet-normal></tuplet></notations><lyric number="1" color="#000000"><syllabic>single</syllabic><text>think</text></lyric></note><note><pitch><step>F</step><octave>4</octave></pitch><duration>192</duration><voice>1</voice><type>quarter</type><duration>128</duration><time-modification><actual-notes>3</actual-notes><normal-notes>2</normal-notes><normal-type>half</normal-type></time-modification><staff>1</staff><lyric number="1" color="#000000"><syllabic>single</syllabic><text>to</text></lyric></note><note><pitch><step>F</step><octave>4</octave></pitch><duration>192</duration><voice>1</voice><type>quarter</type><duration>128</duration><time-modification><actual-notes>3</actual-notes><normal-notes>2</normal-notes><normal-type>half</normal-type></time-modification><staff>1</staff><notations><tuplet type="stop" number="1"/></notations><lyric number="1" color="#000000"><syllabic>begin</syllabic><text>my</text></lyric></note><note><pitch><step>F</step><octave>4</octave></pitch><duration>384</duration><voice>1</voice><type>half</type><staff>1</staff><lyric number="1" color="#000000"><syllabic>end</syllabic><text>self,</text></lyric></note><backup><duration>768</duration></backup><attributes/><note><pitch><step>D</step><octave>3</octave></pitch><duration>384</duration><voice>3</voice><type>half</type><staff>2</staff></note><note><chord/><pitch><step>F</step><octave>3</octave></pitch><duration>384</duration><voice>3</voice><type>half</type><staff>2</staff></note><note><chord/><pitch><step>B</step><alter>-1</alter><octave>3</octave></pitch><duration>384</duration><voice>3</voice><type>half</type><staff>2</staff></note><note><pitch><step>D</step><octave>3</octave></pitch><duration>384</duration><voice>3</voice><type>half</type><staff>2</staff></note><note><chord/><pitch><step>F</step><octave>3</octave></pitch><duration>384</duration><voice>3</voice><type>half</type><staff>2</staff></note><note><chord/><pitch><step>B</step><alter>-1</alter><octave>3</octave></pitch><duration>384</duration><voice>3</voice><type>half</type><staff>2</staff></note></measure><measure number="31"><harmony><root><root-step>C</root-step></root><kind/><kind>major</kind></harmony><note><rest/><duration>192</duration><voice>1</voice><type>quarter</type><staff>1</staff></note><note><pitch><step>F</step><octave>4</octave></pitch><duration>96</duration><voice>1</voice><type>eighth</type><staff>1</staff><beam number="1">begin</beam><lyric number="1" color="#000000"><syllabic>single</syllabic><text>"What</text></lyric></note><note><pitch><step>F</step><octave>4</octave></pitch><duration>96</duration><voice>1</voice><type>eighth</type><staff>1</staff><beam number="1">end</beam><lyric number="1" color="#000000"><syllabic>single</syllabic><text>a</text></lyric></note><note><pitch><step>E</step><octave>4</octave></pitch><duration>192</duration><voice>1</voice><type>quarter</type><duration>128</duration><time-modification><actual-notes>3</actual-notes><normal-notes>2</normal-notes><normal-type>half</normal-type></time-modification><staff>1</staff><notations><tuplet type="start" number="1"><tuplet-actual><tuplet-number>3</tuplet-number><tuplet-type>quarter</tuplet-type></tuplet-actual><tuplet-normal><tuplet-number>1</tuplet-number><tuplet-type>half</tuplet-type></tuplet-normal></tuplet></notations><lyric number="1" color="#000000"><syllabic>begin</syllabic><text>won</text></lyric></note><note><pitch><step>F</step><octave>4</octave></pitch><duration>192</duration><voice>1</voice><type>quarter</type><duration>128</duration><time-modification><actual-notes>3</actual-notes><normal-notes>2</normal-notes><normal-type>half</normal-type></time-modification><staff>1</staff><lyric number="1" color="#000000"><syllabic>middle</syllabic><text>der</text></lyric></note><note><pitch><step>G</step><octave>4</octave></pitch><duration>192</duration><voice>1</voice><type>quarter</type><duration>128</duration><time-modification><actual-notes>3</actual-notes><normal-notes>2</normal-notes><normal-type>half</normal-type></time-modification><staff>1</staff><notations><tuplet type="stop" number="1"/></notations><lyric number="1" color="#000000"><syllabic>end</syllabic><text>ful</text></lyric></note><backup><duration>768</duration></backup><attributes/><note><pitch><step>E</step><octave>3</octave></pitch><duration>384</duration><voice>3</voice><type>half</type><staff>2</staff></note><note><chord/><pitch><step>G</step><octave>3</octave></pitch><duration>384</duration><voice>3</voice><type>half</type><staff>2</staff></note><note><chord/><pitch><step>C</step><octave>4</octave></pitch><duration>384</duration><voice>3</voice><type>half</type><staff>2</staff></note><note><pitch><step>E</step><octave>3</octave></pitch><duration>384</duration><voice>3</voice><type>half</type><staff>2</staff></note><note><chord/><pitch><step>G</step><octave>3</octave></pitch><duration>384</duration><voice>3</voice><type>half</type><staff>2</staff></note><note><chord/><pitch><step>C</step><octave>4</octave></pitch><duration>384</duration><voice>3</voice><type>half</type><staff>2</staff></note></measure><measure number="32"><harmony><root><root-step>F</root-step></root><kind/><kind>major</kind></harmony><note><pitch><step>A</step><octave>4</octave></pitch><duration>768</duration><tie type="start"/><voice>1</voice><type>whole</type><staff>1</staff><notations><tied type="start"/></notations><lyric number="1" color="#000000"><syllabic>single</syllabic><text>world."</text><extend/></lyric></note><backup><duration>768</duration></backup><attributes/><note><pitch><step>F</step><octave>3</octave></pitch><duration>384</duration><voice>3</voice><type>half</type><staff>2</staff></note><note><chord/><pitch><step>A</step><octave>3</octave></pitch><duration>384</duration><voice>3</voice><type>half</type><staff>2</staff></note><note><chord/><pitch><step>C</step><octave>4</octave></pitch><duration>384</duration><voice>3</voice><type>half</type><staff>2</staff></note><note><pitch><step>F</step><octave>3</octave></pitch><duration>384</duration><voice>3</voice><type>half</type><staff>2</staff></note><note><chord/><pitch><step>A</step><octave>3</octave></pitch><duration>384</duration><voice>3</voice><type>half</type><staff>2</staff></note><note><chord/><pitch><step>C</step><octave>4</octave></pitch><duration>384</duration><voice>3</voice><type>half</type><staff>2</staff></note></measure><measure number="33"><harmony><root><root-step>A</root-step></root><kind text="m"/><kind text="m">minor</kind></harmony><note><pitch><step>A</step><octave>4</octave></pitch><duration>384</duration><tie type="stop"/><voice>1</voice><type>half</type><staff>1</staff><notations><tied type="stop"/></notations></note><harmony><root><root-step>D</root-step></root><kind text="m"/><kind text="m">minor</kind></harmony><note><rest/><duration>192</duration><voice>1</voice><type>quarter</type><staff>1</staff></note><note><pitch><step>F</step><octave>4</octave></pitch><duration>96</duration><voice>1</voice><type>eighth</type><staff>1</staff><beam number="1">begin</beam><lyric number="1" color="#000000"><syllabic>single</syllabic><text>And</text></lyric></note><note><pitch><step>F</step><octave>4</octave></pitch><duration>96</duration><voice>1</voice><type>eighth</type><staff>1</staff><beam number="1">end</beam><lyric number="1" color="#000000"><syllabic>single</syllabic><text>I</text></lyric></note><backup><duration>768</duration></backup><attributes/><note><pitch><step>E</step><octave>3</octave></pitch><duration>384</duration><voice>3</voice><type>half</type><staff>2</staff></note><note><chord/><pitch><step>A</step><octave>3</octave></pitch><duration>384</duration><voice>3</voice><type>half</type><staff>2</staff></note><note><chord/><pitch><step>C</step><octave>4</octave></pitch><duration>384</duration><voice>3</voice><type>half</type><staff>2</staff></note><note><pitch><step>F</step><octave>3</octave></pitch><duration>384</duration><voice>3</voice><type>half</type><staff>2</staff></note><note><chord/><pitch><step>A</step><octave>3</octave></pitch><duration>384</duration><voice>3</voice><type>half</type><staff>2</staff></note><note><chord/><pitch><step>D</step><octave>4</octave></pitch><duration>384</duration><voice>3</voice><type>half</type><staff>2</staff></note></measure><measure number="34"><harmony><root><root-step>B</root-step><root-alter>-1</root-alter></root><kind/><kind>major</kind></harmony><note><pitch><step>F</step><octave>4</octave></pitch><duration>192</duration><voice>1</voice><type>quarter</type><duration>128</duration><time-modification><actual-notes>3</actual-notes><normal-notes>2</normal-notes><normal-type>half</normal-type></time-modification><staff>1</staff><notations><tuplet type="start" number="1"><tuplet-actual><tuplet-number>3</tuplet-number><tuplet-type>quarter</tuplet-type></tuplet-actual><tuplet-normal><tuplet-number>1</tuplet-number><tuplet-type>half</tuplet-type></tuplet-normal></tuplet></notations><lyric number="1" color="#000000"><syllabic>single</syllabic><text>think</text></lyric></note><note><pitch><step>F</step><octave>4</octave></pitch><duration>192</duration><voice>1</voice><type>quarter</type><duration>128</duration><time-modification><actual-notes>3</actual-notes><normal-notes>2</normal-notes><normal-type>half</normal-type></time-modification><staff>1</staff><lyric number="1" color="#000000"><syllabic>single</syllabic><text>to</text></lyric></note><note><pitch><step>F</step><octave>4</octave></pitch><duration>192</duration><voice>1</voice><type>quarter</type><duration>128</duration><time-modification><actual-notes>3</actual-notes><normal-notes>2</normal-notes><normal-type>half</normal-type></time-modification><staff>1</staff><notations><tuplet type="stop" number="1"/></notations><lyric number="1" color="#000000"><syllabic>begin</syllabic><text>my</text></lyric></note><note><pitch><step>F</step><octave>4</octave></pitch><duration>384</duration><voice>1</voice><type>half</type><staff>1</staff><lyric number="1" color="#000000"><syllabic>end</syllabic><text>self,</text></lyric></note><backup><duration>768</duration></backup><attributes/><note><pitch><step>D</step><octave>3</octave></pitch><duration>768</duration><voice>3</voice><type>whole</type><staff>2</staff></note><note><chord/><pitch><step>F</step><octave>3</octave></pitch><duration>768</duration><voice>3</voice><type>whole</type><staff>2</staff></note><note><chord/><pitch><step>B</step><alter>-1</alter><octave>3</octave></pitch><duration>768</duration><voice>3</voice><type>whole</type><staff>2</staff></note></measure><measure number="35"><harmony><root><root-step>C</root-step></root><kind/><kind>major</kind></harmony><note><rest/><duration>192</duration><voice>1</voice><type>quarter</type><staff>1</staff></note><note><pitch><step>F</step><octave>4</octave></pitch><duration>96</duration><voice>1</voice><type>eighth</type><staff>1</staff><beam number="1">begin</beam><lyric number="1" color="#000000"><syllabic>single</syllabic><text>"What</text></lyric></note><note><pitch><step>F</step><octave>4</octave></pitch><duration>96</duration><voice>1</voice><type>eighth</type><staff>1</staff><beam number="1">end</beam><lyric number="1" color="#000000"><syllabic>single</syllabic><text>a</text></lyric></note><note><pitch><step>E</step><octave>4</octave></pitch><duration>192</duration><voice>1</voice><type>quarter</type><duration>128</duration><time-modification><actual-notes>3</actual-notes><normal-notes>2</normal-notes><normal-type>half</normal-type></time-modification><staff>1</staff><notations><tuplet type="start" number="1"><tuplet-actual><tuplet-number>3</tuplet-number><tuplet-type>quarter</tuplet-type></tuplet-actual><tuplet-normal><tuplet-number>1</tuplet-number><tuplet-type>half</tuplet-type></tuplet-normal></tuplet></notations><lyric number="1" color="#000000"><syllabic>begin</syllabic><text>won</text></lyric></note><note><pitch><step>F</step><octave>4</octave></pitch><duration>192</duration><voice>1</voice><type>quarter</type><duration>128</duration><time-modification><actual-notes>3</actual-notes><normal-notes>2</normal-notes><normal-type>half</normal-type></time-modification><staff>1</staff><lyric number="1" color="#000000"><syllabic>middle</syllabic><text>der</text></lyric></note><note><pitch><step>G</step><octave>4</octave></pitch><duration>192</duration><voice>1</voice><type>quarter</type><duration>128</duration><time-modification><actual-notes>3</actual-notes><normal-notes>2</normal-notes><normal-type>half</normal-type></time-modification><staff>1</staff><notations><tuplet type="stop" number="1"/></notations><lyric number="1" color="#000000"><syllabic>end</syllabic><text>ful</text></lyric></note><backup><duration>768</duration></backup><attributes/><note><pitch><step>E</step><octave>3</octave></pitch><duration>768</duration><voice>3</voice><type>whole</type><staff>2</staff></note><note><chord/><pitch><step>G</step><octave>3</octave></pitch><duration>768</duration><voice>3</voice><type>whole</type><staff>2</staff></note><note><chord/><pitch><step>C</step><octave>4</octave></pitch><duration>768</duration><voice>3</voice><type>whole</type><staff>2</staff></note></measure><measure number="36"><harmony><root><root-step>F</root-step></root><kind/><kind>major</kind></harmony><note><pitch><step>F</step><octave>4</octave></pitch><duration>768</duration><tie type="start"/><voice>1</voice><type>whole</type><staff>1</staff><notations><tied type="start"/></notations><lyric number="1" color="#000000"><syllabic>single</syllabic><text>world."</text><extend/></lyric></note><harmony><root><root-step>B</root-step><root-alter>-1</root-alter></root><kind relative-x="-6.012885166127937" relative-y="3.1250457763671857"/><kind relative-x="-6.012885166127937" relative-y="3.1250457763671857">major</kind></harmony><backup><duration>768</duration></backup><attributes/><note><pitch><step>F</step><octave>3</octave></pitch><duration>384</duration><voice>3</voice><type>half</type><staff>2</staff></note><note><chord/><pitch><step>A</step><octave>3</octave></pitch><duration>384</duration><voice>3</voice><type>half</type><staff>2</staff></note><note><chord/><pitch><step>C</step><octave>4</octave></pitch><duration>384</duration><voice>3</voice><type>half</type><staff>2</staff></note><note><pitch><step>F</step><octave>3</octave></pitch><duration>384</duration><voice>3</voice><type>half</type><staff>2</staff></note><note><chord/><pitch><step>B</step><alter>-1</alter><octave>3</octave></pitch><duration>384</duration><voice>3</voice><type>half</type><staff>2</staff></note><note><chord/><pitch><step>D</step><octave>4</octave></pitch><duration>384</duration><voice>3</voice><type>half</type><staff>2</staff></note></measure><measure number="37"><harmony><root><root-step>F</root-step></root><kind relative-y="3.1250457763671857"/><kind relative-y="3.1250457763671857">major</kind></harmony><note><pitch><step>F</step><octave>4</octave></pitch><duration>384</duration><tie type="stop"/><voice>1</voice><type>half</type><staff>1</staff><notations><tied type="stop"/></notations></note><note><rest/><duration>384</duration><voice>1</voice><type>half</type><staff>1</staff></note><backup><duration>768</duration></backup><attributes/><note><pitch><step>F</step><octave>3</octave></pitch><duration>384</duration><voice>3</voice><type>half</type><staff>2</staff></note><note><chord/><pitch><step>A</step><octave>3</octave></pitch><duration>384</duration><voice>3</voice><type>half</type><staff>2</staff></note><note><chord/><pitch><step>C</step><octave>4</octave></pitch><duration>384</duration><voice>3</voice><type>half</type><staff>2</staff></note><note><rest/><duration>384</duration><voice>3</voice><type>half</type><staff>2</staff></note><barline location="right"><bar-style>light-heavy</bar-style></barline></measure></part></score-partwise>
